# xmcd
#
# Track frame offsets: 
#        183
#        13870
#        24155
#        33800
#        44242
#        55120
#        66248
#        79283
#        90678
#        99633
#        110178
#        123530
#
# Disc length: 1822 seconds
#
# Revision: 0
# Processed by: cddbd v1.5.2PL0 Copyright (c) Steve Scherf et al.
# Submitted via: ExactAudioCopy v0.99pb4
#
DISCID=a3071c0c
DTITLE=Faron Young - Moments To Remember
DYEAR=2006
DGENRE=Country
TTITLE0=The Tips Of My Fingers
TTITLE1=Nothing Left To Lose
TTITLE2=Live Fast, Love Hard, Die Young
TTITLE3=King Of The Road
TTITLE4=Memphis Tennessee
TTITLE5=Life Is A Picture
TTITLE6=Apartment No. 9
TTITLE7=Cryin' Time
TTITLE8=Together Again
TTITLE9=As Far As I'm Concerned
TTITLE10=Moments To Remember
TTITLE11=There Goes My Everything
EXTD=
EXTT0=
EXTT1=
EXTT2=
EXTT3=
EXTT4=
EXTT5=
EXTT6=
EXTT7=
EXTT8=
EXTT9=
EXTT10=
EXTT11=
PLAYORDER=
